<svg width="806" height="430" viewBox="0 0 806 430" fill="none" xmlns="http://www.w3.org/2000/svg">
<mask id="mask0_802_2227" style="mask-type:alpha" maskUnits="userSpaceOnUse" x="0" y="0" width="806" height="430">
<rect width="806" height="430" rx="5" fill="#6294FD"/>
</mask>
<g mask="url(#mask0_802_2227)">
<path d="M175 333L280.564 -121.393L821 -184V67.942L175 333Z" fill="url(#paint0_linear_802_2227)"/>
<path d="M596.887 -130.254L1073.69 296.074L896.303 586.27L603.542 108.541L596.887 -130.254Z" fill="url(#paint1_linear_802_2227)"/>
<path d="M380.36 494.712L69.2242 661.733L-74.0985 342.279L-56.82 -83.7301L380.36 494.712Z" fill="url(#paint2_linear_802_2227)"/>
<path d="M11.8411 451.09L-68.0829 265.293L122.068 42.8538L365.12 -90.7046L11.8411 451.09Z" fill="url(#paint3_linear_802_2227)"/>
<path d="M212.188 647.479L219.777 363.564L351.679 324.356L486.254 436.398L212.188 647.479Z" fill="url(#paint4_linear_802_2227)"/>
</g>
<defs>
<linearGradient id="paint0_linear_802_2227" x1="498" y1="-184" x2="498" y2="333" gradientUnits="userSpaceOnUse">
<stop stop-color="#1B65FF"/>
<stop offset="1" stop-color="#1B65FF" stop-opacity="0"/>
</linearGradient>
<linearGradient id="paint1_linear_802_2227" x1="996.489" y1="459.652" x2="463.693" y2="38.08" gradientUnits="userSpaceOnUse">
<stop stop-color="#1B65FF"/>
<stop offset="1" stop-color="#1B65FF" stop-opacity="0"/>
</linearGradient>
<linearGradient id="paint2_linear_802_2227" x1="-91.4872" y1="394.022" x2="210.93" y2="212.476" gradientUnits="userSpaceOnUse">
<stop stop-color="#1B65FF"/>
<stop offset="1" stop-color="#1B65FF" stop-opacity="0"/>
</linearGradient>
<linearGradient id="paint3_linear_802_2227" x1="93.318" y1="47.1119" x2="233.806" y2="151.038" gradientUnits="userSpaceOnUse">
<stop stop-color="#1B65FF"/>
<stop offset="1" stop-color="#1B65FF" stop-opacity="0"/>
</linearGradient>
<linearGradient id="paint4_linear_802_2227" x1="338.365" y1="298.691" x2="456.158" y2="514.018" gradientUnits="userSpaceOnUse">
<stop stop-color="#1B65FF"/>
<stop offset="1" stop-color="#1B65FF" stop-opacity="0"/>
</linearGradient>
</defs>
</svg>
